<mxfile host="Electron" modified="2024-04-13T16:50:27.493Z" agent="Mozilla/5.0 (Windows NT 10.0; Win64; x64) AppleWebKit/537.36 (KHTML, like Gecko) draw.io/24.2.5 Chrome/120.0.6099.109 Electron/28.1.0 Safari/537.36" etag="pefEKpYSsouuZNeFKYrj" version="24.2.5" type="device">
  <diagram name="Страница — 1" id="0xL8hshr2YgslTUYwJ_A">
    <mxGraphModel dx="2338" dy="1090" grid="1" gridSize="10" guides="1" tooltips="1" connect="1" arrows="1" fold="1" page="1" pageScale="1" pageWidth="827" pageHeight="1169" math="0" shadow="0">
      <root>
        <mxCell id="0" />
        <mxCell id="1" parent="0" />
        <mxCell id="6HDTmJ1SJg69_PiVTCdH-25" value="" style="edgeStyle=orthogonalEdgeStyle;fontSize=12;html=1;endArrow=ERoneToMany;rounded=0;exitX=0;exitY=0.5;exitDx=0;exitDy=0;" edge="1" parent="1">
          <mxGeometry width="100" height="100" relative="1" as="geometry">
            <mxPoint x="1310" y="574" as="sourcePoint" />
            <mxPoint x="200" y="819" as="targetPoint" />
            <Array as="points">
              <mxPoint x="1280" y="574" />
              <mxPoint x="1280" y="790" />
              <mxPoint x="500" y="790" />
              <mxPoint x="500" y="700" />
              <mxPoint x="180" y="700" />
              <mxPoint x="180" y="819" />
            </Array>
          </mxGeometry>
        </mxCell>
        <mxCell id="ZavuWOCTDrpFLeWUKXMv-10" value="&lt;span style=&quot;text-align: left; text-wrap: wrap;&quot;&gt;Service&lt;/span&gt;" style="shape=table;startSize=30;container=1;collapsible=1;childLayout=tableLayout;fixedRows=1;rowLines=0;fontStyle=1;align=center;resizeLast=1;html=1;" parent="1" vertex="1">
          <mxGeometry x="1310" y="520" width="260" height="180.00000000000045" as="geometry" />
        </mxCell>
        <mxCell id="ZavuWOCTDrpFLeWUKXMv-11" value="" style="shape=tableRow;horizontal=0;startSize=0;swimlaneHead=0;swimlaneBody=0;fillColor=none;collapsible=0;dropTarget=0;points=[[0,0.5],[1,0.5]];portConstraint=eastwest;top=0;left=0;right=0;bottom=1;" parent="ZavuWOCTDrpFLeWUKXMv-10" vertex="1">
          <mxGeometry y="30" width="260" height="30" as="geometry" />
        </mxCell>
        <mxCell id="ZavuWOCTDrpFLeWUKXMv-12" value="PK" style="shape=partialRectangle;connectable=0;fillColor=none;top=0;left=0;bottom=0;right=0;fontStyle=1;overflow=hidden;whiteSpace=wrap;html=1;" parent="ZavuWOCTDrpFLeWUKXMv-11" vertex="1">
          <mxGeometry width="30" height="30" as="geometry">
            <mxRectangle width="30" height="30" as="alternateBounds" />
          </mxGeometry>
        </mxCell>
        <mxCell id="ZavuWOCTDrpFLeWUKXMv-13" value="Service ID Int&amp;nbsp;NOT NULL" style="shape=partialRectangle;connectable=0;fillColor=none;top=0;left=0;bottom=0;right=0;align=left;spacingLeft=6;fontStyle=5;overflow=hidden;whiteSpace=wrap;html=1;" parent="ZavuWOCTDrpFLeWUKXMv-11" vertex="1">
          <mxGeometry x="30" width="230" height="30" as="geometry">
            <mxRectangle width="230" height="30" as="alternateBounds" />
          </mxGeometry>
        </mxCell>
        <mxCell id="ZavuWOCTDrpFLeWUKXMv-14" value="" style="shape=tableRow;horizontal=0;startSize=0;swimlaneHead=0;swimlaneBody=0;fillColor=none;collapsible=0;dropTarget=0;points=[[0,0.5],[1,0.5]];portConstraint=eastwest;top=0;left=0;right=0;bottom=0;" parent="ZavuWOCTDrpFLeWUKXMv-10" vertex="1">
          <mxGeometry y="60" width="260" height="120" as="geometry" />
        </mxCell>
        <mxCell id="ZavuWOCTDrpFLeWUKXMv-15" value="" style="shape=partialRectangle;connectable=0;fillColor=none;top=0;left=0;bottom=0;right=0;editable=1;overflow=hidden;whiteSpace=wrap;html=1;" parent="ZavuWOCTDrpFLeWUKXMv-14" vertex="1">
          <mxGeometry width="30" height="120" as="geometry">
            <mxRectangle width="30" height="120" as="alternateBounds" />
          </mxGeometry>
        </mxCell>
        <mxCell id="ZavuWOCTDrpFLeWUKXMv-16" value="Name: String&lt;br&gt;Description: String&lt;br&gt;Duration: Int NOT NULL&lt;br&gt;Category: String&lt;br&gt;Materials: String&lt;div&gt;Photo: JPG&lt;br&gt;&lt;div&gt;&lt;/div&gt;&lt;span style=&quot;font-weight: 700;&quot;&gt;Review ID Int&amp;nbsp;NOT NULL&lt;/span&gt;&lt;br&gt;&lt;div&gt;&lt;div&gt;&lt;span style=&quot;font-weight: 700;&quot;&gt;Inventory ID Int&amp;nbsp;NOT NULL&lt;/span&gt;&lt;br&gt;&lt;/div&gt;&lt;/div&gt;&lt;/div&gt;" style="shape=partialRectangle;connectable=0;fillColor=none;top=0;left=0;bottom=0;right=0;align=left;spacingLeft=6;overflow=hidden;whiteSpace=wrap;html=1;" parent="ZavuWOCTDrpFLeWUKXMv-14" vertex="1">
          <mxGeometry x="30" width="230" height="120" as="geometry">
            <mxRectangle width="230" height="120" as="alternateBounds" />
          </mxGeometry>
        </mxCell>
        <mxCell id="ZavuWOCTDrpFLeWUKXMv-24" value="&lt;span style=&quot;text-align: left; text-wrap: wrap;&quot;&gt;Client&lt;/span&gt;" style="shape=table;startSize=30;container=1;collapsible=1;childLayout=tableLayout;fixedRows=1;rowLines=0;fontStyle=1;align=center;resizeLast=1;html=1;" parent="1" vertex="1">
          <mxGeometry x="550" y="529.5" width="260" height="190.5" as="geometry" />
        </mxCell>
        <mxCell id="ZavuWOCTDrpFLeWUKXMv-25" value="" style="shape=tableRow;horizontal=0;startSize=0;swimlaneHead=0;swimlaneBody=0;fillColor=none;collapsible=0;dropTarget=0;points=[[0,0.5],[1,0.5]];portConstraint=eastwest;top=0;left=0;right=0;bottom=1;" parent="ZavuWOCTDrpFLeWUKXMv-24" vertex="1">
          <mxGeometry y="30" width="260" height="30" as="geometry" />
        </mxCell>
        <mxCell id="ZavuWOCTDrpFLeWUKXMv-26" value="PK" style="shape=partialRectangle;connectable=0;fillColor=none;top=0;left=0;bottom=0;right=0;fontStyle=1;overflow=hidden;whiteSpace=wrap;html=1;" parent="ZavuWOCTDrpFLeWUKXMv-25" vertex="1">
          <mxGeometry width="30" height="30" as="geometry">
            <mxRectangle width="30" height="30" as="alternateBounds" />
          </mxGeometry>
        </mxCell>
        <mxCell id="ZavuWOCTDrpFLeWUKXMv-27" value="Client ID Int&amp;nbsp;NOT NULL" style="shape=partialRectangle;connectable=0;fillColor=none;top=0;left=0;bottom=0;right=0;align=left;spacingLeft=6;fontStyle=5;overflow=hidden;whiteSpace=wrap;html=1;" parent="ZavuWOCTDrpFLeWUKXMv-25" vertex="1">
          <mxGeometry x="30" width="230" height="30" as="geometry">
            <mxRectangle width="230" height="30" as="alternateBounds" />
          </mxGeometry>
        </mxCell>
        <mxCell id="ZavuWOCTDrpFLeWUKXMv-28" value="" style="shape=tableRow;horizontal=0;startSize=0;swimlaneHead=0;swimlaneBody=0;fillColor=none;collapsible=0;dropTarget=0;points=[[0,0.5],[1,0.5]];portConstraint=eastwest;top=0;left=0;right=0;bottom=0;" parent="ZavuWOCTDrpFLeWUKXMv-24" vertex="1">
          <mxGeometry y="60" width="260" height="131" as="geometry" />
        </mxCell>
        <mxCell id="ZavuWOCTDrpFLeWUKXMv-29" value="" style="shape=partialRectangle;connectable=0;fillColor=none;top=0;left=0;bottom=0;right=0;editable=1;overflow=hidden;whiteSpace=wrap;html=1;" parent="ZavuWOCTDrpFLeWUKXMv-28" vertex="1">
          <mxGeometry width="30" height="131" as="geometry">
            <mxRectangle width="30" height="131" as="alternateBounds" />
          </mxGeometry>
        </mxCell>
        <mxCell id="ZavuWOCTDrpFLeWUKXMv-30" value="First name: String&lt;br style=&quot;padding: 0px; margin: 0px;&quot;&gt;Last name: String&lt;br style=&quot;padding: 0px; margin: 0px;&quot;&gt;Phone number: String&lt;br style=&quot;padding: 0px; margin: 0px;&quot;&gt;Email: String&amp;nbsp;&lt;br style=&quot;padding: 0px; margin: 0px;&quot;&gt;Date of birth: Date&lt;br style=&quot;padding: 0px; margin: 0px;&quot;&gt;&lt;span style=&quot;font-weight: 700;&quot;&gt;Client&#39;s history ID Int&amp;nbsp;NOT NULL&lt;/span&gt;&lt;br style=&quot;padding: 0px; margin: 0px;&quot;&gt;Service notes: Array&lt;br style=&quot;padding: 0px; margin: 0px;&quot;&gt;&lt;span style=&quot;font-weight: 700;&quot;&gt;Review ID Int&amp;nbsp;NOT NULL&lt;/span&gt;" style="shape=partialRectangle;connectable=0;fillColor=none;top=0;left=0;bottom=0;right=0;align=left;spacingLeft=6;overflow=hidden;whiteSpace=wrap;html=1;" parent="ZavuWOCTDrpFLeWUKXMv-28" vertex="1">
          <mxGeometry x="30" width="230" height="131" as="geometry">
            <mxRectangle width="230" height="131" as="alternateBounds" />
          </mxGeometry>
        </mxCell>
        <mxCell id="ZavuWOCTDrpFLeWUKXMv-36" value="Employee" style="shape=table;startSize=30;container=1;collapsible=1;childLayout=tableLayout;fixedRows=1;rowLines=0;fontStyle=1;align=center;resizeLast=1;html=1;" parent="1" vertex="1">
          <mxGeometry x="1270" y="800" width="260" height="240" as="geometry" />
        </mxCell>
        <mxCell id="ZavuWOCTDrpFLeWUKXMv-37" value="" style="shape=tableRow;horizontal=0;startSize=0;swimlaneHead=0;swimlaneBody=0;fillColor=none;collapsible=0;dropTarget=0;points=[[0,0.5],[1,0.5]];portConstraint=eastwest;top=0;left=0;right=0;bottom=1;" parent="ZavuWOCTDrpFLeWUKXMv-36" vertex="1">
          <mxGeometry y="30" width="260" height="30" as="geometry" />
        </mxCell>
        <mxCell id="ZavuWOCTDrpFLeWUKXMv-38" value="PK" style="shape=partialRectangle;connectable=0;fillColor=none;top=0;left=0;bottom=0;right=0;fontStyle=1;overflow=hidden;whiteSpace=wrap;html=1;" parent="ZavuWOCTDrpFLeWUKXMv-37" vertex="1">
          <mxGeometry width="30" height="30" as="geometry">
            <mxRectangle width="30" height="30" as="alternateBounds" />
          </mxGeometry>
        </mxCell>
        <mxCell id="ZavuWOCTDrpFLeWUKXMv-39" value="&lt;span style=&quot;text-align: center; text-wrap: nowrap;&quot;&gt;Employee&lt;/span&gt;&amp;nbsp;ID Int&amp;nbsp;NOT NULL" style="shape=partialRectangle;connectable=0;fillColor=none;top=0;left=0;bottom=0;right=0;align=left;spacingLeft=6;fontStyle=5;overflow=hidden;whiteSpace=wrap;html=1;" parent="ZavuWOCTDrpFLeWUKXMv-37" vertex="1">
          <mxGeometry x="30" width="230" height="30" as="geometry">
            <mxRectangle width="230" height="30" as="alternateBounds" />
          </mxGeometry>
        </mxCell>
        <mxCell id="ZavuWOCTDrpFLeWUKXMv-40" value="" style="shape=tableRow;horizontal=0;startSize=0;swimlaneHead=0;swimlaneBody=0;fillColor=none;collapsible=0;dropTarget=0;points=[[0,0.5],[1,0.5]];portConstraint=eastwest;top=0;left=0;right=0;bottom=0;" parent="ZavuWOCTDrpFLeWUKXMv-36" vertex="1">
          <mxGeometry y="60" width="260" height="180" as="geometry" />
        </mxCell>
        <mxCell id="ZavuWOCTDrpFLeWUKXMv-41" value="" style="shape=partialRectangle;connectable=0;fillColor=none;top=0;left=0;bottom=0;right=0;editable=1;overflow=hidden;whiteSpace=wrap;html=1;" parent="ZavuWOCTDrpFLeWUKXMv-40" vertex="1">
          <mxGeometry width="30" height="180" as="geometry">
            <mxRectangle width="30" height="180" as="alternateBounds" />
          </mxGeometry>
        </mxCell>
        <mxCell id="ZavuWOCTDrpFLeWUKXMv-42" value="First name: String&lt;br style=&quot;padding: 0px; margin: 0px;&quot;&gt;Last name: String&lt;br style=&quot;padding: 0px; margin: 0px;&quot;&gt;Phone number: String&lt;br style=&quot;padding: 0px; margin: 0px;&quot;&gt;Specialization: String&lt;br&gt;&lt;span style=&quot;font-weight: 700;&quot;&gt;S_B_Dates ID Date&lt;/span&gt;&lt;div&gt;&lt;span style=&quot;font-weight: 700;&quot;&gt;S_A_Dates ID Date&lt;/span&gt;&lt;b&gt;&lt;u&gt;&lt;br&gt;&lt;/u&gt;&lt;/b&gt;Internships: Int NOT NULL&lt;br&gt;&lt;span style=&quot;font-weight: 700;&quot;&gt;Review ID Int&amp;nbsp;NOT NULL&lt;/span&gt;&lt;br&gt;&lt;span style=&quot;font-weight: 700;&quot;&gt;Service ID Int NOT NULL&lt;/span&gt;&lt;br&gt;Photograph: JPG&lt;br&gt;Contact information: String&lt;br&gt;&lt;br&gt;&lt;/div&gt;" style="shape=partialRectangle;connectable=0;fillColor=none;top=0;left=0;bottom=0;right=0;align=left;spacingLeft=6;overflow=hidden;whiteSpace=wrap;html=1;" parent="ZavuWOCTDrpFLeWUKXMv-40" vertex="1">
          <mxGeometry x="30" width="230" height="180" as="geometry">
            <mxRectangle width="230" height="180" as="alternateBounds" />
          </mxGeometry>
        </mxCell>
        <mxCell id="ZavuWOCTDrpFLeWUKXMv-44" value="&lt;span style=&quot;text-align: left; text-wrap: wrap;&quot;&gt;Recording&lt;/span&gt;&lt;span style=&quot;font-weight: 400; text-align: left; text-wrap: wrap;&quot;&gt;&amp;nbsp;&lt;/span&gt;" style="shape=table;startSize=30;container=1;collapsible=1;childLayout=tableLayout;fixedRows=1;rowLines=0;fontStyle=1;align=center;resizeLast=1;html=1;" parent="1" vertex="1">
          <mxGeometry x="1310" y="240" width="270" height="150" as="geometry" />
        </mxCell>
        <mxCell id="ZavuWOCTDrpFLeWUKXMv-45" value="" style="shape=tableRow;horizontal=0;startSize=0;swimlaneHead=0;swimlaneBody=0;fillColor=none;collapsible=0;dropTarget=0;points=[[0,0.5],[1,0.5]];portConstraint=eastwest;top=0;left=0;right=0;bottom=1;" parent="ZavuWOCTDrpFLeWUKXMv-44" vertex="1">
          <mxGeometry y="30" width="270" height="30" as="geometry" />
        </mxCell>
        <mxCell id="ZavuWOCTDrpFLeWUKXMv-46" value="PK" style="shape=partialRectangle;connectable=0;fillColor=none;top=0;left=0;bottom=0;right=0;fontStyle=1;overflow=hidden;whiteSpace=wrap;html=1;" parent="ZavuWOCTDrpFLeWUKXMv-45" vertex="1">
          <mxGeometry width="30" height="30" as="geometry">
            <mxRectangle width="30" height="30" as="alternateBounds" />
          </mxGeometry>
        </mxCell>
        <mxCell id="ZavuWOCTDrpFLeWUKXMv-47" value="Recording ID Int NOT NULL" style="shape=partialRectangle;connectable=0;fillColor=none;top=0;left=0;bottom=0;right=0;align=left;spacingLeft=6;fontStyle=5;overflow=hidden;whiteSpace=wrap;html=1;" parent="ZavuWOCTDrpFLeWUKXMv-45" vertex="1">
          <mxGeometry x="30" width="240" height="30" as="geometry">
            <mxRectangle width="240" height="30" as="alternateBounds" />
          </mxGeometry>
        </mxCell>
        <mxCell id="ZavuWOCTDrpFLeWUKXMv-48" value="" style="shape=tableRow;horizontal=0;startSize=0;swimlaneHead=0;swimlaneBody=0;fillColor=none;collapsible=0;dropTarget=0;points=[[0,0.5],[1,0.5]];portConstraint=eastwest;top=0;left=0;right=0;bottom=0;" parent="ZavuWOCTDrpFLeWUKXMv-44" vertex="1">
          <mxGeometry y="60" width="270" height="90" as="geometry" />
        </mxCell>
        <mxCell id="ZavuWOCTDrpFLeWUKXMv-49" value="" style="shape=partialRectangle;connectable=0;fillColor=none;top=0;left=0;bottom=0;right=0;editable=1;overflow=hidden;whiteSpace=wrap;html=1;" parent="ZavuWOCTDrpFLeWUKXMv-48" vertex="1">
          <mxGeometry width="30" height="90" as="geometry">
            <mxRectangle width="30" height="90" as="alternateBounds" />
          </mxGeometry>
        </mxCell>
        <mxCell id="ZavuWOCTDrpFLeWUKXMv-50" value="DataRecords: Date&lt;br&gt;&lt;span style=&quot;font-weight: 700;&quot;&gt;Client ID Int NOT NULL&lt;/span&gt;&lt;br&gt;&lt;span style=&quot;font-weight: 700;&quot;&gt;Service ID Int NOT NULL&lt;/span&gt;&lt;br&gt;&lt;span style=&quot;font-weight: 700; text-wrap: nowrap; text-align: center;&quot;&gt;Employee&lt;/span&gt;&lt;span style=&quot;font-weight: 700;&quot;&gt;&amp;nbsp;ID Int NOT NULL&lt;/span&gt;&lt;br&gt;&lt;span style=&quot;font-weight: 700;&quot;&gt;Administrator ID Int&amp;nbsp;NOT NULL&lt;/span&gt;&lt;br&gt;&lt;div&gt;Notes: String&lt;div&gt;&lt;br&gt;&lt;/div&gt;&lt;/div&gt;" style="shape=partialRectangle;connectable=0;fillColor=none;top=0;left=0;bottom=0;right=0;align=left;spacingLeft=6;overflow=hidden;whiteSpace=wrap;html=1;" parent="ZavuWOCTDrpFLeWUKXMv-48" vertex="1">
          <mxGeometry x="30" width="240" height="90" as="geometry">
            <mxRectangle width="240" height="90" as="alternateBounds" />
          </mxGeometry>
        </mxCell>
        <mxCell id="nVaocaOWp-77uA6Ea02G-10" value="&lt;span style=&quot;text-align: left; text-wrap: wrap;&quot;&gt;Review&amp;nbsp;&lt;/span&gt;" style="shape=table;startSize=30;container=1;collapsible=1;childLayout=tableLayout;fixedRows=1;rowLines=0;fontStyle=1;align=center;resizeLast=1;html=1;" parent="1" vertex="1">
          <mxGeometry x="940" y="570" width="260" height="149" as="geometry" />
        </mxCell>
        <mxCell id="nVaocaOWp-77uA6Ea02G-11" value="" style="shape=tableRow;horizontal=0;startSize=0;swimlaneHead=0;swimlaneBody=0;fillColor=none;collapsible=0;dropTarget=0;points=[[0,0.5],[1,0.5]];portConstraint=eastwest;top=0;left=0;right=0;bottom=1;" parent="nVaocaOWp-77uA6Ea02G-10" vertex="1">
          <mxGeometry y="30" width="260" height="30" as="geometry" />
        </mxCell>
        <mxCell id="nVaocaOWp-77uA6Ea02G-12" value="PK" style="shape=partialRectangle;connectable=0;fillColor=none;top=0;left=0;bottom=0;right=0;fontStyle=1;overflow=hidden;whiteSpace=wrap;html=1;" parent="nVaocaOWp-77uA6Ea02G-11" vertex="1">
          <mxGeometry width="30" height="30" as="geometry">
            <mxRectangle width="30" height="30" as="alternateBounds" />
          </mxGeometry>
        </mxCell>
        <mxCell id="nVaocaOWp-77uA6Ea02G-13" value="Review ID Int&amp;nbsp;NOT NULL" style="shape=partialRectangle;connectable=0;fillColor=none;top=0;left=0;bottom=0;right=0;align=left;spacingLeft=6;fontStyle=5;overflow=hidden;whiteSpace=wrap;html=1;" parent="nVaocaOWp-77uA6Ea02G-11" vertex="1">
          <mxGeometry x="30" width="230" height="30" as="geometry">
            <mxRectangle width="230" height="30" as="alternateBounds" />
          </mxGeometry>
        </mxCell>
        <mxCell id="nVaocaOWp-77uA6Ea02G-14" value="" style="shape=tableRow;horizontal=0;startSize=0;swimlaneHead=0;swimlaneBody=0;fillColor=none;collapsible=0;dropTarget=0;points=[[0,0.5],[1,0.5]];portConstraint=eastwest;top=0;left=0;right=0;bottom=0;" parent="nVaocaOWp-77uA6Ea02G-10" vertex="1">
          <mxGeometry y="60" width="260" height="89" as="geometry" />
        </mxCell>
        <mxCell id="nVaocaOWp-77uA6Ea02G-15" value="&lt;div&gt;&lt;b style=&quot;background-color: initial;&quot;&gt;&lt;br&gt;&lt;/b&gt;&lt;/div&gt;&lt;b style=&quot;background-color: initial;&quot;&gt;&lt;div&gt;&lt;b style=&quot;background-color: initial;&quot;&gt;&lt;br&gt;&lt;/b&gt;&lt;/div&gt;&lt;div&gt;&lt;b style=&quot;background-color: initial;&quot;&gt;F&lt;/b&gt;&lt;b style=&quot;background-color: initial;&quot;&gt;K&lt;/b&gt;&lt;b style=&quot;background-color: initial;&quot;&gt;&lt;br&gt;&lt;/b&gt;&lt;/div&gt;F&lt;/b&gt;&lt;b style=&quot;background-color: initial;&quot;&gt;K&lt;/b&gt;" style="shape=partialRectangle;connectable=0;fillColor=none;top=0;left=0;bottom=0;right=0;editable=1;overflow=hidden;whiteSpace=wrap;html=1;" parent="nVaocaOWp-77uA6Ea02G-14" vertex="1">
          <mxGeometry width="30" height="89" as="geometry">
            <mxRectangle width="30" height="89" as="alternateBounds" />
          </mxGeometry>
        </mxCell>
        <mxCell id="nVaocaOWp-77uA6Ea02G-16" value="Rating: Int NOT NULL&lt;br&gt;Text of the call: String&lt;br&gt;&lt;span style=&quot;font-weight: 700;&quot;&gt;Recording ID Int NOT NULL&lt;/span&gt;&lt;div&gt;&lt;span style=&quot;font-weight: 700;&quot;&gt;Client ID Int&amp;nbsp;NOT NULL&lt;/span&gt;&lt;/div&gt;" style="shape=partialRectangle;connectable=0;fillColor=none;top=0;left=0;bottom=0;right=0;align=left;spacingLeft=6;overflow=hidden;whiteSpace=wrap;html=1;" parent="nVaocaOWp-77uA6Ea02G-14" vertex="1">
          <mxGeometry x="30" width="230" height="89" as="geometry">
            <mxRectangle width="230" height="89" as="alternateBounds" />
          </mxGeometry>
        </mxCell>
        <mxCell id="nVaocaOWp-77uA6Ea02G-18" value="&lt;span style=&quot;text-align: left; text-wrap: wrap;&quot;&gt;Client&#39;s history&lt;/span&gt;" style="shape=table;startSize=30;container=1;collapsible=1;childLayout=tableLayout;fixedRows=1;rowLines=0;fontStyle=1;align=center;resizeLast=1;html=1;" parent="1" vertex="1">
          <mxGeometry x="210" y="550" width="260" height="100" as="geometry" />
        </mxCell>
        <mxCell id="nVaocaOWp-77uA6Ea02G-19" value="" style="shape=tableRow;horizontal=0;startSize=0;swimlaneHead=0;swimlaneBody=0;fillColor=none;collapsible=0;dropTarget=0;points=[[0,0.5],[1,0.5]];portConstraint=eastwest;top=0;left=0;right=0;bottom=1;" parent="nVaocaOWp-77uA6Ea02G-18" vertex="1">
          <mxGeometry y="30" width="260" height="30" as="geometry" />
        </mxCell>
        <mxCell id="nVaocaOWp-77uA6Ea02G-20" value="PK" style="shape=partialRectangle;connectable=0;fillColor=none;top=0;left=0;bottom=0;right=0;fontStyle=1;overflow=hidden;whiteSpace=wrap;html=1;" parent="nVaocaOWp-77uA6Ea02G-19" vertex="1">
          <mxGeometry width="30" height="30" as="geometry">
            <mxRectangle width="30" height="30" as="alternateBounds" />
          </mxGeometry>
        </mxCell>
        <mxCell id="nVaocaOWp-77uA6Ea02G-21" value="Client&#39;s history ID Int&amp;nbsp;NOT NULL" style="shape=partialRectangle;connectable=0;fillColor=none;top=0;left=0;bottom=0;right=0;align=left;spacingLeft=6;fontStyle=5;overflow=hidden;whiteSpace=wrap;html=1;" parent="nVaocaOWp-77uA6Ea02G-19" vertex="1">
          <mxGeometry x="30" width="230" height="30" as="geometry">
            <mxRectangle width="230" height="30" as="alternateBounds" />
          </mxGeometry>
        </mxCell>
        <mxCell id="nVaocaOWp-77uA6Ea02G-22" value="" style="shape=tableRow;horizontal=0;startSize=0;swimlaneHead=0;swimlaneBody=0;fillColor=none;collapsible=0;dropTarget=0;points=[[0,0.5],[1,0.5]];portConstraint=eastwest;top=0;left=0;right=0;bottom=0;" parent="nVaocaOWp-77uA6Ea02G-18" vertex="1">
          <mxGeometry y="60" width="260" height="40" as="geometry" />
        </mxCell>
        <mxCell id="nVaocaOWp-77uA6Ea02G-23" value="" style="shape=partialRectangle;connectable=0;fillColor=none;top=0;left=0;bottom=0;right=0;editable=1;overflow=hidden;whiteSpace=wrap;html=1;" parent="nVaocaOWp-77uA6Ea02G-22" vertex="1">
          <mxGeometry width="30" height="40" as="geometry">
            <mxRectangle width="30" height="40" as="alternateBounds" />
          </mxGeometry>
        </mxCell>
        <mxCell id="nVaocaOWp-77uA6Ea02G-24" value="&lt;span style=&quot;font-weight: 700;&quot;&gt;Previous&amp;nbsp;&lt;/span&gt;&lt;span style=&quot;font-weight: 700;&quot;&gt;ID&amp;nbsp;&lt;/span&gt;&lt;span style=&quot;font-weight: 700;&quot;&gt;Int NOT NULL&lt;/span&gt;&lt;div&gt;&lt;span style=&quot;font-weight: 700;&quot;&gt;Preference&amp;nbsp; ID Int&amp;nbsp;NOT NULL&lt;/span&gt;&lt;span style=&quot;font-weight: 700;&quot;&gt;&lt;br&gt;&lt;/span&gt;&lt;/div&gt;" style="shape=partialRectangle;connectable=0;fillColor=none;top=0;left=0;bottom=0;right=0;align=left;spacingLeft=6;overflow=hidden;whiteSpace=wrap;html=1;" parent="nVaocaOWp-77uA6Ea02G-22" vertex="1">
          <mxGeometry x="30" width="230" height="40" as="geometry">
            <mxRectangle width="230" height="40" as="alternateBounds" />
          </mxGeometry>
        </mxCell>
        <mxCell id="nVaocaOWp-77uA6Ea02G-26" value="&lt;span style=&quot;text-align: left; text-wrap: wrap;&quot;&gt;Inventory&amp;nbsp;&lt;/span&gt;" style="shape=table;startSize=30;container=1;collapsible=1;childLayout=tableLayout;fixedRows=1;rowLines=0;fontStyle=1;align=center;resizeLast=1;html=1;" parent="1" vertex="1">
          <mxGeometry x="1630" y="529.5" width="285" height="230" as="geometry" />
        </mxCell>
        <mxCell id="nVaocaOWp-77uA6Ea02G-27" value="" style="shape=tableRow;horizontal=0;startSize=0;swimlaneHead=0;swimlaneBody=0;fillColor=none;collapsible=0;dropTarget=0;points=[[0,0.5],[1,0.5]];portConstraint=eastwest;top=0;left=0;right=0;bottom=1;" parent="nVaocaOWp-77uA6Ea02G-26" vertex="1">
          <mxGeometry y="30" width="285" height="30" as="geometry" />
        </mxCell>
        <mxCell id="nVaocaOWp-77uA6Ea02G-28" value="PK" style="shape=partialRectangle;connectable=0;fillColor=none;top=0;left=0;bottom=0;right=0;fontStyle=1;overflow=hidden;whiteSpace=wrap;html=1;" parent="nVaocaOWp-77uA6Ea02G-27" vertex="1">
          <mxGeometry width="30" height="30" as="geometry">
            <mxRectangle width="30" height="30" as="alternateBounds" />
          </mxGeometry>
        </mxCell>
        <mxCell id="nVaocaOWp-77uA6Ea02G-29" value="Inventory ID Int&amp;nbsp;NOT NULL" style="shape=partialRectangle;connectable=0;fillColor=none;top=0;left=0;bottom=0;right=0;align=left;spacingLeft=6;fontStyle=5;overflow=hidden;whiteSpace=wrap;html=1;" parent="nVaocaOWp-77uA6Ea02G-27" vertex="1">
          <mxGeometry x="30" width="255" height="30" as="geometry">
            <mxRectangle width="255" height="30" as="alternateBounds" />
          </mxGeometry>
        </mxCell>
        <mxCell id="nVaocaOWp-77uA6Ea02G-30" value="" style="shape=tableRow;horizontal=0;startSize=0;swimlaneHead=0;swimlaneBody=0;fillColor=none;collapsible=0;dropTarget=0;points=[[0,0.5],[1,0.5]];portConstraint=eastwest;top=0;left=0;right=0;bottom=0;" parent="nVaocaOWp-77uA6Ea02G-26" vertex="1">
          <mxGeometry y="60" width="285" height="170" as="geometry" />
        </mxCell>
        <mxCell id="nVaocaOWp-77uA6Ea02G-31" value="" style="shape=partialRectangle;connectable=0;fillColor=none;top=0;left=0;bottom=0;right=0;editable=1;overflow=hidden;whiteSpace=wrap;html=1;" parent="nVaocaOWp-77uA6Ea02G-30" vertex="1">
          <mxGeometry width="30" height="170" as="geometry">
            <mxRectangle width="30" height="170" as="alternateBounds" />
          </mxGeometry>
        </mxCell>
        <mxCell id="nVaocaOWp-77uA6Ea02G-32" value="Name: String&amp;nbsp;&lt;div&gt;Quantity:&amp;nbsp;&lt;span style=&quot;background-color: initial;&quot;&gt;Int NOT NULL&lt;/span&gt;&lt;span style=&quot;background-color: initial;&quot;&gt;&amp;nbsp;&lt;/span&gt;&lt;/div&gt;&lt;div&gt;Units of measurement: String&amp;nbsp;&lt;br style=&quot;padding: 0px; margin: 0px;&quot;&gt;Unit Price: Float&amp;nbsp;&lt;br style=&quot;padding: 0px; margin: 0px;&quot;&gt;Supplier: String&amp;nbsp;&lt;br style=&quot;padding: 0px; margin: 0px;&quot;&gt;Date of the Last Deposit: Date&amp;nbsp;&lt;br style=&quot;padding: 0px; margin: 0px;&quot;&gt;Minimum Inventory Threshold: Int NOT NULL&lt;br style=&quot;padding: 0px; margin: 0px;&quot;&gt;Category: String&amp;nbsp;&lt;br style=&quot;padding: 0px; margin: 0px;&quot;&gt;Instructions: String&amp;nbsp;&lt;br style=&quot;padding: 0px; margin: 0px;&quot;&gt;Photograph: JPG&amp;nbsp;&lt;/div&gt;" style="shape=partialRectangle;connectable=0;fillColor=none;top=0;left=0;bottom=0;right=0;align=left;spacingLeft=6;overflow=hidden;whiteSpace=wrap;html=1;" parent="nVaocaOWp-77uA6Ea02G-30" vertex="1">
          <mxGeometry x="30" width="255" height="170" as="geometry">
            <mxRectangle width="255" height="170" as="alternateBounds" />
          </mxGeometry>
        </mxCell>
        <mxCell id="nVaocaOWp-77uA6Ea02G-50" value="&lt;span style=&quot;text-align: left; text-wrap: wrap;&quot;&gt;Administrator&lt;/span&gt;" style="shape=table;startSize=30;container=1;collapsible=1;childLayout=tableLayout;fixedRows=1;rowLines=0;fontStyle=1;align=center;resizeLast=1;html=1;" parent="1" vertex="1">
          <mxGeometry x="920" y="359.5" width="260" height="181" as="geometry" />
        </mxCell>
        <mxCell id="nVaocaOWp-77uA6Ea02G-51" value="" style="shape=tableRow;horizontal=0;startSize=0;swimlaneHead=0;swimlaneBody=0;fillColor=none;collapsible=0;dropTarget=0;points=[[0,0.5],[1,0.5]];portConstraint=eastwest;top=0;left=0;right=0;bottom=1;" parent="nVaocaOWp-77uA6Ea02G-50" vertex="1">
          <mxGeometry y="30" width="260" height="30" as="geometry" />
        </mxCell>
        <mxCell id="nVaocaOWp-77uA6Ea02G-52" value="PK" style="shape=partialRectangle;connectable=0;fillColor=none;top=0;left=0;bottom=0;right=0;fontStyle=1;overflow=hidden;whiteSpace=wrap;html=1;" parent="nVaocaOWp-77uA6Ea02G-51" vertex="1">
          <mxGeometry width="30" height="30" as="geometry">
            <mxRectangle width="30" height="30" as="alternateBounds" />
          </mxGeometry>
        </mxCell>
        <mxCell id="nVaocaOWp-77uA6Ea02G-53" value="Administrator ID Int&amp;nbsp;NOT NULL" style="shape=partialRectangle;connectable=0;fillColor=none;top=0;left=0;bottom=0;right=0;align=left;spacingLeft=6;fontStyle=5;overflow=hidden;whiteSpace=wrap;html=1;" parent="nVaocaOWp-77uA6Ea02G-51" vertex="1">
          <mxGeometry x="30" width="230" height="30" as="geometry">
            <mxRectangle width="230" height="30" as="alternateBounds" />
          </mxGeometry>
        </mxCell>
        <mxCell id="nVaocaOWp-77uA6Ea02G-54" value="" style="shape=tableRow;horizontal=0;startSize=0;swimlaneHead=0;swimlaneBody=0;fillColor=none;collapsible=0;dropTarget=0;points=[[0,0.5],[1,0.5]];portConstraint=eastwest;top=0;left=0;right=0;bottom=0;" parent="nVaocaOWp-77uA6Ea02G-50" vertex="1">
          <mxGeometry y="60" width="260" height="121" as="geometry" />
        </mxCell>
        <mxCell id="nVaocaOWp-77uA6Ea02G-55" value="" style="shape=partialRectangle;connectable=0;fillColor=none;top=0;left=0;bottom=0;right=0;editable=1;overflow=hidden;whiteSpace=wrap;html=1;" parent="nVaocaOWp-77uA6Ea02G-54" vertex="1">
          <mxGeometry width="30" height="121" as="geometry">
            <mxRectangle width="30" height="121" as="alternateBounds" />
          </mxGeometry>
        </mxCell>
        <mxCell id="nVaocaOWp-77uA6Ea02G-56" value="First name: string&amp;nbsp;&lt;br style=&quot;padding: 0px; margin: 0px;&quot;&gt;Last name: string&amp;nbsp;&lt;br style=&quot;padding: 0px; margin: 0px;&quot;&gt;Specialization: string&amp;nbsp;&lt;br style=&quot;padding: 0px; margin: 0px;&quot;&gt;Internships: int&amp;nbsp;&lt;div&gt;&lt;span style=&quot;font-weight: 700;&quot;&gt;S_B_Dates ID&amp;nbsp;&lt;/span&gt;&lt;span style=&quot;font-weight: 700;&quot;&gt;Int&amp;nbsp;NOT NULL&lt;/span&gt;&lt;div&gt;&lt;span style=&quot;font-weight: 700;&quot;&gt;S_A_Dates ID&amp;nbsp;&lt;/span&gt;&lt;span style=&quot;font-weight: 700; background-color: initial;&quot;&gt;Int&amp;nbsp;NOT NULL&lt;/span&gt;&lt;/div&gt;&lt;div&gt;Contact information: string&lt;span style=&quot;font-weight: 700;&quot;&gt;&lt;br&gt;&lt;/span&gt;&lt;/div&gt;&lt;span style=&quot;font-weight: 700;&quot;&gt;Review ID Int&amp;nbsp;NOT NULL&lt;/span&gt;&amp;nbsp;&lt;div&gt;&lt;br&gt;&lt;/div&gt;&lt;/div&gt;" style="shape=partialRectangle;connectable=0;fillColor=none;top=0;left=0;bottom=0;right=0;align=left;spacingLeft=6;overflow=hidden;whiteSpace=wrap;html=1;" parent="nVaocaOWp-77uA6Ea02G-54" vertex="1">
          <mxGeometry x="30" width="230" height="121" as="geometry">
            <mxRectangle width="230" height="121" as="alternateBounds" />
          </mxGeometry>
        </mxCell>
        <mxCell id="nVaocaOWp-77uA6Ea02G-57" value="" style="edgeStyle=entityRelationEdgeStyle;fontSize=12;html=1;endArrow=ERoneToMany;rounded=0;exitX=1;exitY=0.5;exitDx=0;exitDy=0;entryX=0.033;entryY=0.663;entryDx=0;entryDy=0;entryPerimeter=0;" parent="1" source="nVaocaOWp-77uA6Ea02G-19" edge="1" target="6HDTmJ1SJg69_PiVTCdH-35">
          <mxGeometry width="100" height="100" relative="1" as="geometry">
            <mxPoint x="480" y="750" as="sourcePoint" />
            <mxPoint x="550" y="692" as="targetPoint" />
          </mxGeometry>
        </mxCell>
        <mxCell id="nVaocaOWp-77uA6Ea02G-58" value="" style="edgeStyle=orthogonalEdgeStyle;fontSize=12;html=1;endArrow=ERoneToMany;rounded=0;exitX=0;exitY=0.5;exitDx=0;exitDy=0;" parent="1" source="nVaocaOWp-77uA6Ea02G-11" target="ZavuWOCTDrpFLeWUKXMv-28" edge="1">
          <mxGeometry width="100" height="100" relative="1" as="geometry">
            <mxPoint x="910" y="610" as="sourcePoint" />
            <mxPoint x="520" y="720" as="targetPoint" />
            <Array as="points">
              <mxPoint x="940" y="605" />
              <mxPoint x="910" y="605" />
              <mxPoint x="910" y="770" />
              <mxPoint x="521" y="770" />
              <mxPoint x="521" y="700" />
            </Array>
          </mxGeometry>
        </mxCell>
        <mxCell id="nVaocaOWp-77uA6Ea02G-60" value="" style="edgeStyle=entityRelationEdgeStyle;fontSize=12;html=1;endArrow=ERoneToMany;rounded=0;exitX=1;exitY=0.5;exitDx=0;exitDy=0;entryX=-0.009;entryY=0.597;entryDx=0;entryDy=0;entryPerimeter=0;" parent="1" source="nVaocaOWp-77uA6Ea02G-11" target="ZavuWOCTDrpFLeWUKXMv-40" edge="1">
          <mxGeometry width="100" height="100" relative="1" as="geometry">
            <mxPoint x="1210" y="870" as="sourcePoint" />
            <mxPoint x="1290" y="967" as="targetPoint" />
            <Array as="points">
              <mxPoint x="1230" y="901" />
              <mxPoint x="1240" y="770" />
              <mxPoint x="1210" y="770" />
              <mxPoint x="1230" y="870" />
              <mxPoint x="1230" y="890" />
            </Array>
          </mxGeometry>
        </mxCell>
        <mxCell id="nVaocaOWp-77uA6Ea02G-61" value="&lt;b style=&quot;color: rgb(0, 0, 0); font-family: Helvetica; font-size: 12px; font-style: normal; font-variant-ligatures: normal; font-variant-caps: normal; letter-spacing: normal; orphans: 2; text-indent: 0px; text-transform: none; widows: 2; word-spacing: 0px; -webkit-text-stroke-width: 0px; white-space: normal; background-color: rgb(251, 251, 251); text-decoration-thickness: initial; text-decoration-style: initial; text-decoration-color: initial;&quot;&gt;FK&lt;/b&gt;" style="text;whiteSpace=wrap;html=1;align=center;" parent="1" vertex="1">
          <mxGeometry x="1270" y="930" width="30" height="20" as="geometry" />
        </mxCell>
        <mxCell id="nVaocaOWp-77uA6Ea02G-66" value="&lt;b style=&quot;color: rgb(0, 0, 0); font-family: Helvetica; font-size: 12px; font-style: normal; font-variant-ligatures: normal; font-variant-caps: normal; letter-spacing: normal; orphans: 2; text-indent: 0px; text-transform: none; widows: 2; word-spacing: 0px; -webkit-text-stroke-width: 0px; white-space: normal; background-color: rgb(251, 251, 251); text-decoration-thickness: initial; text-decoration-style: initial; text-decoration-color: initial;&quot;&gt;FK&lt;/b&gt;" style="text;whiteSpace=wrap;html=1;align=center;" parent="1" vertex="1">
          <mxGeometry x="1270" y="960" width="30" height="20" as="geometry" />
        </mxCell>
        <mxCell id="nVaocaOWp-77uA6Ea02G-69" value="&lt;b style=&quot;color: rgb(0, 0, 0); font-family: Helvetica; font-size: 12px; font-style: normal; font-variant-ligatures: normal; font-variant-caps: normal; letter-spacing: normal; orphans: 2; text-indent: 0px; text-transform: none; widows: 2; word-spacing: 0px; -webkit-text-stroke-width: 0px; white-space: normal; background-color: rgb(251, 251, 251); text-decoration-thickness: initial; text-decoration-style: initial; text-decoration-color: initial;&quot;&gt;FK&lt;/b&gt;" style="text;whiteSpace=wrap;html=1;align=center;" parent="1" vertex="1">
          <mxGeometry x="1270" y="950" width="30" height="20" as="geometry" />
        </mxCell>
        <mxCell id="nVaocaOWp-77uA6Ea02G-70" value="" style="edgeStyle=orthogonalEdgeStyle;fontSize=12;html=1;endArrow=ERoneToMany;rounded=0;exitX=0;exitY=0.5;exitDx=0;exitDy=0;entryX=0;entryY=0.75;entryDx=0;entryDy=0;" parent="1" source="ZavuWOCTDrpFLeWUKXMv-11" target="nVaocaOWp-77uA6Ea02G-66" edge="1">
          <mxGeometry width="100" height="100" relative="1" as="geometry">
            <mxPoint x="1250" y="530" as="sourcePoint" />
            <mxPoint x="1260" y="980" as="targetPoint" />
          </mxGeometry>
        </mxCell>
        <mxCell id="nVaocaOWp-77uA6Ea02G-71" value="&lt;b style=&quot;color: rgb(0, 0, 0); font-family: Helvetica; font-size: 12px; font-style: normal; font-variant-ligatures: normal; font-variant-caps: normal; letter-spacing: normal; orphans: 2; text-indent: 0px; text-transform: none; widows: 2; word-spacing: 0px; -webkit-text-stroke-width: 0px; white-space: normal; background-color: rgb(251, 251, 251); text-decoration-thickness: initial; text-decoration-style: initial; text-decoration-color: initial;&quot;&gt;FK&lt;/b&gt;" style="text;whiteSpace=wrap;html=1;align=center;" parent="1" vertex="1">
          <mxGeometry x="920" y="520" width="30" height="20" as="geometry" />
        </mxCell>
        <mxCell id="nVaocaOWp-77uA6Ea02G-72" value="" style="edgeStyle=orthogonalEdgeStyle;fontSize=12;html=1;endArrow=ERoneToMany;rounded=0;exitX=-0.001;exitY=0.257;exitDx=0;exitDy=0;entryX=0;entryY=0.75;entryDx=0;entryDy=0;exitPerimeter=0;" parent="1" source="nVaocaOWp-77uA6Ea02G-11" target="nVaocaOWp-77uA6Ea02G-71" edge="1">
          <mxGeometry width="100" height="100" relative="1" as="geometry">
            <mxPoint x="940" y="600" as="sourcePoint" />
            <mxPoint x="910" y="500" as="targetPoint" />
          </mxGeometry>
        </mxCell>
        <mxCell id="nVaocaOWp-77uA6Ea02G-75" value="" style="edgeStyle=orthogonalEdgeStyle;fontSize=12;html=1;endArrow=ERoneToMany;rounded=0;exitX=0;exitY=0.5;exitDx=0;exitDy=0;entryX=0.038;entryY=0.968;entryDx=0;entryDy=0;entryPerimeter=0;" parent="1" edge="1">
          <mxGeometry width="100" height="100" relative="1" as="geometry">
            <mxPoint x="1630" y="575" as="sourcePoint" />
            <mxPoint x="1311.14" y="691.66" as="targetPoint" />
            <Array as="points">
              <mxPoint x="1610" y="575.5" />
              <mxPoint x="1610" y="771.5" />
              <mxPoint x="1290" y="771.5" />
              <mxPoint x="1290" y="690.5" />
              <mxPoint x="1310" y="690.5" />
              <mxPoint x="1310" y="691.5" />
            </Array>
          </mxGeometry>
        </mxCell>
        <mxCell id="nVaocaOWp-77uA6Ea02G-82" value="&lt;div&gt;&lt;b&gt;&lt;br&gt;&lt;/b&gt;&lt;/div&gt;&lt;div&gt;&lt;b&gt;FK&lt;/b&gt;&lt;br&gt;&lt;/div&gt;&lt;div&gt;&lt;b style=&quot;color: rgb(0, 0, 0); font-family: Helvetica; font-size: 12px; font-style: normal; font-variant-ligatures: normal; font-variant-caps: normal; letter-spacing: normal; orphans: 2; text-indent: 0px; text-transform: none; widows: 2; word-spacing: 0px; -webkit-text-stroke-width: 0px; white-space: normal; background-color: rgb(251, 251, 251); text-decoration-thickness: initial; text-decoration-style: initial; text-decoration-color: initial;&quot;&gt;&lt;b&gt;FK&lt;/b&gt;&lt;br&gt;&lt;/b&gt;&lt;/div&gt;&lt;div&gt;&lt;b style=&quot;color: rgb(0, 0, 0); font-family: Helvetica; font-size: 12px; font-style: normal; font-variant-ligatures: normal; font-variant-caps: normal; letter-spacing: normal; orphans: 2; text-indent: 0px; text-transform: none; widows: 2; word-spacing: 0px; -webkit-text-stroke-width: 0px; white-space: normal; background-color: rgb(251, 251, 251); text-decoration-thickness: initial; text-decoration-style: initial; text-decoration-color: initial;&quot;&gt;&lt;b&gt;FK&lt;/b&gt;&lt;b&gt;&lt;br&gt;&lt;/b&gt;&lt;/b&gt;&lt;/div&gt;&lt;div&gt;&lt;b style=&quot;color: rgb(0, 0, 0); font-family: Helvetica; font-size: 12px; font-style: normal; font-variant-ligatures: normal; font-variant-caps: normal; letter-spacing: normal; orphans: 2; text-indent: 0px; text-transform: none; widows: 2; word-spacing: 0px; -webkit-text-stroke-width: 0px; white-space: normal; background-color: rgb(251, 251, 251); text-decoration-thickness: initial; text-decoration-style: initial; text-decoration-color: initial;&quot;&gt;&lt;b&gt;&lt;b&gt;FK&lt;/b&gt;&lt;/b&gt;&lt;b&gt;&lt;br&gt;&lt;/b&gt;&lt;/b&gt;&lt;/div&gt;" style="text;whiteSpace=wrap;html=1;align=center;" parent="1" vertex="1">
          <mxGeometry x="1310" y="300" width="30" height="60" as="geometry" />
        </mxCell>
        <mxCell id="nVaocaOWp-77uA6Ea02G-88" value="" style="edgeStyle=orthogonalEdgeStyle;fontSize=12;html=1;endArrow=ERoneToMany;rounded=0;exitX=-0.001;exitY=0.3;exitDx=0;exitDy=0;exitPerimeter=0;entryX=-0.003;entryY=0.939;entryDx=0;entryDy=0;entryPerimeter=0;" parent="1" source="ZavuWOCTDrpFLeWUKXMv-37" target="nVaocaOWp-77uA6Ea02G-82" edge="1">
          <mxGeometry width="100" height="100" relative="1" as="geometry">
            <mxPoint x="1250" y="840" as="sourcePoint" />
            <mxPoint x="1250" y="350" as="targetPoint" />
            <Array as="points">
              <mxPoint x="1250" y="839" />
              <mxPoint x="1250" y="356" />
            </Array>
          </mxGeometry>
        </mxCell>
        <mxCell id="nVaocaOWp-77uA6Ea02G-89" value="" style="edgeStyle=orthogonalEdgeStyle;fontSize=12;html=1;endArrow=ERoneToMany;rounded=0;exitX=-0.008;exitY=0.254;exitDx=0;exitDy=0;exitPerimeter=0;" parent="1" source="ZavuWOCTDrpFLeWUKXMv-11" edge="1">
          <mxGeometry width="100" height="100" relative="1" as="geometry">
            <mxPoint x="1272" y="827" as="sourcePoint" />
            <mxPoint x="1310" y="340" as="targetPoint" />
            <Array as="points">
              <mxPoint x="1272" y="558" />
              <mxPoint x="1272" y="340" />
              <mxPoint x="1310" y="340" />
            </Array>
          </mxGeometry>
        </mxCell>
        <mxCell id="nVaocaOWp-77uA6Ea02G-90" value="" style="edgeStyle=orthogonalEdgeStyle;fontSize=12;html=1;endArrow=ERoneToMany;rounded=0;exitX=1;exitY=0.5;exitDx=0;exitDy=0;entryX=0;entryY=0.5;entryDx=0;entryDy=0;" parent="1" edge="1" target="nVaocaOWp-77uA6Ea02G-82">
          <mxGeometry width="100" height="100" relative="1" as="geometry">
            <mxPoint x="810.0000000000002" y="570" as="sourcePoint" />
            <mxPoint x="1270" y="320" as="targetPoint" />
            <Array as="points">
              <mxPoint x="890" y="570" />
              <mxPoint x="890" y="266" />
              <mxPoint x="1300" y="266" />
              <mxPoint x="1300" y="330" />
            </Array>
          </mxGeometry>
        </mxCell>
        <mxCell id="dFKfAWJj2y6_g-Lvkzqu-5" value="&lt;span style=&quot;text-wrap: wrap;&quot;&gt;Schedule of busy dates&lt;/span&gt;" style="shape=table;startSize=50;container=1;collapsible=1;childLayout=tableLayout;fixedRows=1;rowLines=0;fontStyle=1;align=center;resizeLast=1;html=1;" parent="1" vertex="1">
          <mxGeometry x="880" y="851" width="260" height="109" as="geometry" />
        </mxCell>
        <mxCell id="dFKfAWJj2y6_g-Lvkzqu-6" value="" style="shape=tableRow;horizontal=0;startSize=0;swimlaneHead=0;swimlaneBody=0;fillColor=none;collapsible=0;dropTarget=0;points=[[0,0.5],[1,0.5]];portConstraint=eastwest;top=0;left=0;right=0;bottom=1;" parent="dFKfAWJj2y6_g-Lvkzqu-5" vertex="1">
          <mxGeometry y="50" width="260" height="30" as="geometry" />
        </mxCell>
        <mxCell id="dFKfAWJj2y6_g-Lvkzqu-7" value="PK" style="shape=partialRectangle;connectable=0;fillColor=none;top=0;left=0;bottom=0;right=0;fontStyle=1;overflow=hidden;whiteSpace=wrap;html=1;" parent="dFKfAWJj2y6_g-Lvkzqu-6" vertex="1">
          <mxGeometry width="30" height="30" as="geometry">
            <mxRectangle width="30" height="30" as="alternateBounds" />
          </mxGeometry>
        </mxCell>
        <mxCell id="dFKfAWJj2y6_g-Lvkzqu-8" value="S_B_Dates ID Int&amp;nbsp;NOT NULL" style="shape=partialRectangle;connectable=0;fillColor=none;top=0;left=0;bottom=0;right=0;align=left;spacingLeft=6;fontStyle=5;overflow=hidden;whiteSpace=wrap;html=1;" parent="dFKfAWJj2y6_g-Lvkzqu-6" vertex="1">
          <mxGeometry x="30" width="230" height="30" as="geometry">
            <mxRectangle width="230" height="30" as="alternateBounds" />
          </mxGeometry>
        </mxCell>
        <mxCell id="dFKfAWJj2y6_g-Lvkzqu-9" value="" style="shape=tableRow;horizontal=0;startSize=0;swimlaneHead=0;swimlaneBody=0;fillColor=none;collapsible=0;dropTarget=0;points=[[0,0.5],[1,0.5]];portConstraint=eastwest;top=0;left=0;right=0;bottom=0;" parent="dFKfAWJj2y6_g-Lvkzqu-5" vertex="1">
          <mxGeometry y="80" width="260" height="29" as="geometry" />
        </mxCell>
        <mxCell id="dFKfAWJj2y6_g-Lvkzqu-10" value="&lt;b&gt;FK&lt;/b&gt;" style="shape=partialRectangle;connectable=0;fillColor=none;top=0;left=0;bottom=0;right=0;editable=1;overflow=hidden;whiteSpace=wrap;html=1;" parent="dFKfAWJj2y6_g-Lvkzqu-9" vertex="1">
          <mxGeometry width="30" height="29" as="geometry">
            <mxRectangle width="30" height="29" as="alternateBounds" />
          </mxGeometry>
        </mxCell>
        <mxCell id="dFKfAWJj2y6_g-Lvkzqu-11" value="&lt;span style=&quot;font-weight: 700;&quot;&gt;Dates ID Int&amp;nbsp;NOT NULL&lt;/span&gt;" style="shape=partialRectangle;connectable=0;fillColor=none;top=0;left=0;bottom=0;right=0;align=left;spacingLeft=6;overflow=hidden;whiteSpace=wrap;html=1;" parent="dFKfAWJj2y6_g-Lvkzqu-9" vertex="1">
          <mxGeometry x="30" width="230" height="29" as="geometry">
            <mxRectangle width="230" height="29" as="alternateBounds" />
          </mxGeometry>
        </mxCell>
        <mxCell id="dFKfAWJj2y6_g-Lvkzqu-12" value="&lt;span style=&quot;text-wrap: wrap;&quot;&gt;Schedule of&amp;nbsp;&lt;/span&gt;&lt;span style=&quot;text-align: left; text-wrap: wrap;&quot;&gt;available&lt;/span&gt;&lt;span style=&quot;text-wrap: wrap;&quot;&gt;&amp;nbsp;dates&lt;/span&gt;" style="shape=table;startSize=50;container=1;collapsible=1;childLayout=tableLayout;fixedRows=1;rowLines=0;fontStyle=1;align=center;resizeLast=1;html=1;" parent="1" vertex="1">
          <mxGeometry x="880" y="980" width="260" height="109" as="geometry" />
        </mxCell>
        <mxCell id="dFKfAWJj2y6_g-Lvkzqu-13" value="" style="shape=tableRow;horizontal=0;startSize=0;swimlaneHead=0;swimlaneBody=0;fillColor=none;collapsible=0;dropTarget=0;points=[[0,0.5],[1,0.5]];portConstraint=eastwest;top=0;left=0;right=0;bottom=1;" parent="dFKfAWJj2y6_g-Lvkzqu-12" vertex="1">
          <mxGeometry y="50" width="260" height="30" as="geometry" />
        </mxCell>
        <mxCell id="dFKfAWJj2y6_g-Lvkzqu-14" value="PK" style="shape=partialRectangle;connectable=0;fillColor=none;top=0;left=0;bottom=0;right=0;fontStyle=1;overflow=hidden;whiteSpace=wrap;html=1;" parent="dFKfAWJj2y6_g-Lvkzqu-13" vertex="1">
          <mxGeometry width="30" height="30" as="geometry">
            <mxRectangle width="30" height="30" as="alternateBounds" />
          </mxGeometry>
        </mxCell>
        <mxCell id="dFKfAWJj2y6_g-Lvkzqu-15" value="S_A_Dates ID Int&amp;nbsp;NOT NULL" style="shape=partialRectangle;connectable=0;fillColor=none;top=0;left=0;bottom=0;right=0;align=left;spacingLeft=6;fontStyle=5;overflow=hidden;whiteSpace=wrap;html=1;" parent="dFKfAWJj2y6_g-Lvkzqu-13" vertex="1">
          <mxGeometry x="30" width="230" height="30" as="geometry">
            <mxRectangle width="230" height="30" as="alternateBounds" />
          </mxGeometry>
        </mxCell>
        <mxCell id="dFKfAWJj2y6_g-Lvkzqu-16" value="" style="shape=tableRow;horizontal=0;startSize=0;swimlaneHead=0;swimlaneBody=0;fillColor=none;collapsible=0;dropTarget=0;points=[[0,0.5],[1,0.5]];portConstraint=eastwest;top=0;left=0;right=0;bottom=0;" parent="dFKfAWJj2y6_g-Lvkzqu-12" vertex="1">
          <mxGeometry y="80" width="260" height="29" as="geometry" />
        </mxCell>
        <mxCell id="dFKfAWJj2y6_g-Lvkzqu-17" value="&lt;b&gt;FK&lt;/b&gt;" style="shape=partialRectangle;connectable=0;fillColor=none;top=0;left=0;bottom=0;right=0;editable=1;overflow=hidden;whiteSpace=wrap;html=1;" parent="dFKfAWJj2y6_g-Lvkzqu-16" vertex="1">
          <mxGeometry width="30" height="29" as="geometry">
            <mxRectangle width="30" height="29" as="alternateBounds" />
          </mxGeometry>
        </mxCell>
        <mxCell id="dFKfAWJj2y6_g-Lvkzqu-18" value="&lt;span style=&quot;font-weight: 700;&quot;&gt;Dates ID Int&amp;nbsp;NOT NULL&lt;/span&gt;" style="shape=partialRectangle;connectable=0;fillColor=none;top=0;left=0;bottom=0;right=0;align=left;spacingLeft=6;overflow=hidden;whiteSpace=wrap;html=1;" parent="dFKfAWJj2y6_g-Lvkzqu-16" vertex="1">
          <mxGeometry x="30" width="230" height="29" as="geometry">
            <mxRectangle width="230" height="29" as="alternateBounds" />
          </mxGeometry>
        </mxCell>
        <mxCell id="dFKfAWJj2y6_g-Lvkzqu-32" value="" style="edgeStyle=entityRelationEdgeStyle;fontSize=12;html=1;endArrow=ERoneToMany;rounded=0;exitX=0.998;exitY=0.784;exitDx=0;exitDy=0;exitPerimeter=0;entryX=0;entryY=0.5;entryDx=0;entryDy=0;" parent="1" target="dFKfAWJj2y6_g-Lvkzqu-16" edge="1">
          <mxGeometry width="100" height="100" relative="1" as="geometry">
            <mxPoint x="809.48" y="963.5199999999998" as="sourcePoint" />
            <mxPoint x="890" y="958" as="targetPoint" />
          </mxGeometry>
        </mxCell>
        <mxCell id="dFKfAWJj2y6_g-Lvkzqu-33" value="&lt;b style=&quot;color: rgb(0, 0, 0); font-family: Helvetica; font-size: 12px; font-style: normal; font-variant-ligatures: normal; font-variant-caps: normal; letter-spacing: normal; orphans: 2; text-indent: 0px; text-transform: none; widows: 2; word-spacing: 0px; -webkit-text-stroke-width: 0px; white-space: normal; background-color: rgb(251, 251, 251); text-decoration-thickness: initial; text-decoration-style: initial; text-decoration-color: initial;&quot;&gt;FK&lt;/b&gt;" style="text;whiteSpace=wrap;html=1;align=center;" parent="1" vertex="1">
          <mxGeometry x="1270" y="920" width="30" height="20" as="geometry" />
        </mxCell>
        <mxCell id="dFKfAWJj2y6_g-Lvkzqu-35" value="" style="edgeStyle=entityRelationEdgeStyle;fontSize=12;html=1;endArrow=ERoneToMany;rounded=0;exitX=1;exitY=0.5;exitDx=0;exitDy=0;" parent="1" source="dFKfAWJj2y6_g-Lvkzqu-6" edge="1">
          <mxGeometry width="100" height="100" relative="1" as="geometry">
            <mxPoint x="1190" y="833" as="sourcePoint" />
            <mxPoint x="1270" y="930" as="targetPoint" />
          </mxGeometry>
        </mxCell>
        <mxCell id="dFKfAWJj2y6_g-Lvkzqu-36" value="" style="edgeStyle=entityRelationEdgeStyle;fontSize=12;html=1;endArrow=ERoneToMany;rounded=0;exitX=1;exitY=0.25;exitDx=0;exitDy=0;" parent="1" source="dFKfAWJj2y6_g-Lvkzqu-12" edge="1">
          <mxGeometry width="100" height="100" relative="1" as="geometry">
            <mxPoint x="1140" y="933" as="sourcePoint" />
            <mxPoint x="1270" y="947" as="targetPoint" />
          </mxGeometry>
        </mxCell>
        <mxCell id="dFKfAWJj2y6_g-Lvkzqu-37" value="&lt;b style=&quot;color: rgb(0, 0, 0); font-family: Helvetica; font-size: 12px; font-style: normal; font-variant-ligatures: normal; font-variant-caps: normal; letter-spacing: normal; orphans: 2; text-indent: 0px; text-transform: none; widows: 2; word-spacing: 0px; -webkit-text-stroke-width: 0px; white-space: normal; background-color: rgb(251, 251, 251); text-decoration-thickness: initial; text-decoration-style: initial; text-decoration-color: initial;&quot;&gt;FK&lt;/b&gt;" style="text;whiteSpace=wrap;html=1;align=center;" parent="1" vertex="1">
          <mxGeometry x="920" y="485.25" width="30" height="20" as="geometry" />
        </mxCell>
        <mxCell id="dFKfAWJj2y6_g-Lvkzqu-38" value="&lt;b style=&quot;color: rgb(0, 0, 0); font-family: Helvetica; font-size: 12px; font-style: normal; font-variant-ligatures: normal; font-variant-caps: normal; letter-spacing: normal; orphans: 2; text-indent: 0px; text-transform: none; widows: 2; word-spacing: 0px; -webkit-text-stroke-width: 0px; white-space: normal; background-color: rgb(251, 251, 251); text-decoration-thickness: initial; text-decoration-style: initial; text-decoration-color: initial;&quot;&gt;FK&lt;/b&gt;" style="text;whiteSpace=wrap;html=1;align=center;" parent="1" vertex="1">
          <mxGeometry x="920" y="470" width="30" height="20" as="geometry" />
        </mxCell>
        <mxCell id="dFKfAWJj2y6_g-Lvkzqu-39" value="" style="edgeStyle=orthogonalEdgeStyle;fontSize=12;html=1;endArrow=ERoneToMany;rounded=0;entryX=0;entryY=0;entryDx=0;entryDy=0;exitX=0;exitY=0.5;exitDx=0;exitDy=0;" parent="1" source="dFKfAWJj2y6_g-Lvkzqu-6" edge="1" target="dFKfAWJj2y6_g-Lvkzqu-37">
          <mxGeometry width="100" height="100" relative="1" as="geometry">
            <mxPoint x="918" y="708.96" as="sourcePoint" />
            <mxPoint x="920" y="500.96000000000004" as="targetPoint" />
            <Array as="points">
              <mxPoint x="850" y="916" />
              <mxPoint x="850" y="485" />
              <mxPoint x="900" y="485" />
            </Array>
          </mxGeometry>
        </mxCell>
        <mxCell id="dFKfAWJj2y6_g-Lvkzqu-40" value="" style="edgeStyle=orthogonalEdgeStyle;fontSize=12;html=1;endArrow=ERoneToMany;rounded=0;entryX=0;entryY=0.75;entryDx=0;entryDy=0;exitX=0;exitY=0.5;exitDx=0;exitDy=0;" parent="1" source="dFKfAWJj2y6_g-Lvkzqu-13" target="dFKfAWJj2y6_g-Lvkzqu-37" edge="1">
          <mxGeometry width="100" height="100" relative="1" as="geometry">
            <mxPoint x="870" y="930" as="sourcePoint" />
            <mxPoint x="910" y="514.96" as="targetPoint" />
            <Array as="points">
              <mxPoint x="840" y="1045" />
              <mxPoint x="840" y="500" />
              <mxPoint x="910" y="500" />
            </Array>
          </mxGeometry>
        </mxCell>
        <mxCell id="6HDTmJ1SJg69_PiVTCdH-2" value="&lt;span style=&quot;text-align: left; text-wrap: wrap;&quot;&gt;Previous customer record&lt;/span&gt;" style="shape=table;startSize=61;container=1;collapsible=1;childLayout=tableLayout;fixedRows=1;rowLines=0;fontStyle=1;align=center;resizeLast=1;html=1;" vertex="1" parent="1">
          <mxGeometry x="210" y="394.25" width="260" height="111" as="geometry" />
        </mxCell>
        <mxCell id="6HDTmJ1SJg69_PiVTCdH-3" value="" style="shape=tableRow;horizontal=0;startSize=0;swimlaneHead=0;swimlaneBody=0;fillColor=none;collapsible=0;dropTarget=0;points=[[0,0.5],[1,0.5]];portConstraint=eastwest;top=0;left=0;right=0;bottom=1;" vertex="1" parent="6HDTmJ1SJg69_PiVTCdH-2">
          <mxGeometry y="61" width="260" height="30" as="geometry" />
        </mxCell>
        <mxCell id="6HDTmJ1SJg69_PiVTCdH-4" value="PK" style="shape=partialRectangle;connectable=0;fillColor=none;top=0;left=0;bottom=0;right=0;fontStyle=1;overflow=hidden;whiteSpace=wrap;html=1;" vertex="1" parent="6HDTmJ1SJg69_PiVTCdH-3">
          <mxGeometry width="30" height="30" as="geometry">
            <mxRectangle width="30" height="30" as="alternateBounds" />
          </mxGeometry>
        </mxCell>
        <mxCell id="6HDTmJ1SJg69_PiVTCdH-5" value="Previous ID Int NOT NULL" style="shape=partialRectangle;connectable=0;fillColor=none;top=0;left=0;bottom=0;right=0;align=left;spacingLeft=6;fontStyle=5;overflow=hidden;whiteSpace=wrap;html=1;" vertex="1" parent="6HDTmJ1SJg69_PiVTCdH-3">
          <mxGeometry x="30" width="230" height="30" as="geometry">
            <mxRectangle width="230" height="30" as="alternateBounds" />
          </mxGeometry>
        </mxCell>
        <mxCell id="6HDTmJ1SJg69_PiVTCdH-6" value="" style="shape=tableRow;horizontal=0;startSize=0;swimlaneHead=0;swimlaneBody=0;fillColor=none;collapsible=0;dropTarget=0;points=[[0,0.5],[1,0.5]];portConstraint=eastwest;top=0;left=0;right=0;bottom=0;" vertex="1" parent="6HDTmJ1SJg69_PiVTCdH-2">
          <mxGeometry y="91" width="260" height="20" as="geometry" />
        </mxCell>
        <mxCell id="6HDTmJ1SJg69_PiVTCdH-7" value="" style="shape=partialRectangle;connectable=0;fillColor=none;top=0;left=0;bottom=0;right=0;editable=1;overflow=hidden;whiteSpace=wrap;html=1;" vertex="1" parent="6HDTmJ1SJg69_PiVTCdH-6">
          <mxGeometry width="30" height="20" as="geometry">
            <mxRectangle width="30" height="20" as="alternateBounds" />
          </mxGeometry>
        </mxCell>
        <mxCell id="6HDTmJ1SJg69_PiVTCdH-8" value="&lt;span style=&quot;font-weight: 700;&quot;&gt;Recording ID Int NOT NULL&lt;/span&gt;" style="shape=partialRectangle;connectable=0;fillColor=none;top=0;left=0;bottom=0;right=0;align=left;spacingLeft=6;overflow=hidden;whiteSpace=wrap;html=1;" vertex="1" parent="6HDTmJ1SJg69_PiVTCdH-6">
          <mxGeometry x="30" width="230" height="20" as="geometry">
            <mxRectangle width="230" height="20" as="alternateBounds" />
          </mxGeometry>
        </mxCell>
        <mxCell id="6HDTmJ1SJg69_PiVTCdH-9" value="" style="edgeStyle=elbowEdgeStyle;fontSize=12;html=1;endArrow=ERoneToMany;rounded=0;exitX=0;exitY=0.5;exitDx=0;exitDy=0;" edge="1" parent="1" source="ZavuWOCTDrpFLeWUKXMv-45">
          <mxGeometry width="100" height="100" relative="1" as="geometry">
            <mxPoint x="150" y="950" as="sourcePoint" />
            <mxPoint x="210" y="498.25" as="targetPoint" />
            <Array as="points">
              <mxPoint x="160" y="730" />
            </Array>
          </mxGeometry>
        </mxCell>
        <mxCell id="6HDTmJ1SJg69_PiVTCdH-10" value="&lt;b style=&quot;forced-color-adjust: none; color: rgb(0, 0, 0); font-family: Helvetica; font-size: 12px; font-style: normal; font-variant-ligatures: normal; font-variant-caps: normal; letter-spacing: normal; orphans: 2; text-align: center; text-indent: 0px; text-transform: none; widows: 2; word-spacing: 0px; -webkit-text-stroke-width: 0px; white-space: normal; background-color: rgb(251, 251, 251); text-decoration-thickness: initial; text-decoration-style: initial; text-decoration-color: initial;&quot;&gt;FK&lt;/b&gt;" style="text;whiteSpace=wrap;html=1;" vertex="1" parent="1">
          <mxGeometry x="220" y="484.25" width="15" height="21" as="geometry" />
        </mxCell>
        <mxCell id="6HDTmJ1SJg69_PiVTCdH-12" value="&lt;b style=&quot;forced-color-adjust: none; color: rgb(0, 0, 0); font-family: Helvetica; font-size: 12px; font-style: normal; font-variant-ligatures: normal; font-variant-caps: normal; letter-spacing: normal; orphans: 2; text-align: center; text-indent: 0px; text-transform: none; widows: 2; word-spacing: 0px; -webkit-text-stroke-width: 0px; white-space: normal; background-color: rgb(251, 251, 251); text-decoration-thickness: initial; text-decoration-style: initial; text-decoration-color: initial;&quot;&gt;FK&lt;/b&gt;" style="text;whiteSpace=wrap;html=1;" vertex="1" parent="1">
          <mxGeometry x="220" y="609" width="15" height="21" as="geometry" />
        </mxCell>
        <mxCell id="6HDTmJ1SJg69_PiVTCdH-13" value="" style="edgeStyle=elbowEdgeStyle;fontSize=12;html=1;endArrow=ERoneToMany;rounded=0;entryX=0;entryY=0.5;entryDx=0;entryDy=0;" edge="1" parent="1">
          <mxGeometry width="100" height="100" relative="1" as="geometry">
            <mxPoint x="210" y="470" as="sourcePoint" />
            <mxPoint x="210" y="624.5" as="targetPoint" />
            <Array as="points">
              <mxPoint x="140" y="842.87" />
            </Array>
          </mxGeometry>
        </mxCell>
        <mxCell id="6HDTmJ1SJg69_PiVTCdH-15" value="&lt;span style=&quot;text-align: left; text-wrap: wrap;&quot;&gt;&amp;nbsp;Preference&amp;nbsp;&lt;/span&gt;" style="shape=table;startSize=30;container=1;collapsible=1;childLayout=tableLayout;fixedRows=1;rowLines=0;fontStyle=1;align=center;resizeLast=1;html=1;" vertex="1" parent="1">
          <mxGeometry x="200" y="740" width="260" height="100.00000000000045" as="geometry" />
        </mxCell>
        <mxCell id="6HDTmJ1SJg69_PiVTCdH-16" value="" style="shape=tableRow;horizontal=0;startSize=0;swimlaneHead=0;swimlaneBody=0;fillColor=none;collapsible=0;dropTarget=0;points=[[0,0.5],[1,0.5]];portConstraint=eastwest;top=0;left=0;right=0;bottom=1;" vertex="1" parent="6HDTmJ1SJg69_PiVTCdH-15">
          <mxGeometry y="30" width="260" height="30" as="geometry" />
        </mxCell>
        <mxCell id="6HDTmJ1SJg69_PiVTCdH-17" value="PK" style="shape=partialRectangle;connectable=0;fillColor=none;top=0;left=0;bottom=0;right=0;fontStyle=1;overflow=hidden;whiteSpace=wrap;html=1;" vertex="1" parent="6HDTmJ1SJg69_PiVTCdH-16">
          <mxGeometry width="30" height="30" as="geometry">
            <mxRectangle width="30" height="30" as="alternateBounds" />
          </mxGeometry>
        </mxCell>
        <mxCell id="6HDTmJ1SJg69_PiVTCdH-18" value="Preference&amp;nbsp; ID Int&amp;nbsp;NOT NULL" style="shape=partialRectangle;connectable=0;fillColor=none;top=0;left=0;bottom=0;right=0;align=left;spacingLeft=6;fontStyle=5;overflow=hidden;whiteSpace=wrap;html=1;" vertex="1" parent="6HDTmJ1SJg69_PiVTCdH-16">
          <mxGeometry x="30" width="230" height="30" as="geometry">
            <mxRectangle width="230" height="30" as="alternateBounds" />
          </mxGeometry>
        </mxCell>
        <mxCell id="6HDTmJ1SJg69_PiVTCdH-19" value="" style="shape=tableRow;horizontal=0;startSize=0;swimlaneHead=0;swimlaneBody=0;fillColor=none;collapsible=0;dropTarget=0;points=[[0,0.5],[1,0.5]];portConstraint=eastwest;top=0;left=0;right=0;bottom=0;" vertex="1" parent="6HDTmJ1SJg69_PiVTCdH-15">
          <mxGeometry y="60" width="260" height="40" as="geometry" />
        </mxCell>
        <mxCell id="6HDTmJ1SJg69_PiVTCdH-20" value="" style="shape=partialRectangle;connectable=0;fillColor=none;top=0;left=0;bottom=0;right=0;editable=1;overflow=hidden;whiteSpace=wrap;html=1;" vertex="1" parent="6HDTmJ1SJg69_PiVTCdH-19">
          <mxGeometry width="30" height="40" as="geometry">
            <mxRectangle width="30" height="40" as="alternateBounds" />
          </mxGeometry>
        </mxCell>
        <mxCell id="6HDTmJ1SJg69_PiVTCdH-21" value="&lt;span style=&quot;font-weight: 700;&quot;&gt;Service ID Int&amp;nbsp;NOT NULL&lt;/span&gt;&lt;div&gt;&lt;span style=&quot;font-weight: 700; text-wrap: nowrap; text-align: center;&quot;&gt;Employee&lt;/span&gt;&lt;span style=&quot;font-weight: 700;&quot;&gt;&amp;nbsp;ID Int&amp;nbsp;NOT NULL&lt;/span&gt;&lt;span style=&quot;font-weight: 700; text-decoration-line: underline;&quot;&gt;&lt;br&gt;&lt;/span&gt;&lt;/div&gt;" style="shape=partialRectangle;connectable=0;fillColor=none;top=0;left=0;bottom=0;right=0;align=left;spacingLeft=6;overflow=hidden;whiteSpace=wrap;html=1;" vertex="1" parent="6HDTmJ1SJg69_PiVTCdH-19">
          <mxGeometry x="30" width="230" height="40" as="geometry">
            <mxRectangle width="230" height="40" as="alternateBounds" />
          </mxGeometry>
        </mxCell>
        <mxCell id="6HDTmJ1SJg69_PiVTCdH-22" value="&lt;b style=&quot;forced-color-adjust: none; color: rgb(0, 0, 0); font-family: Helvetica; font-size: 12px; font-style: normal; font-variant-ligatures: normal; font-variant-caps: normal; letter-spacing: normal; orphans: 2; text-align: center; text-indent: 0px; text-transform: none; widows: 2; word-spacing: 0px; -webkit-text-stroke-width: 0px; white-space: normal; background-color: rgb(251, 251, 251); text-decoration-thickness: initial; text-decoration-style: initial; text-decoration-color: initial;&quot;&gt;FK&lt;/b&gt;" style="text;whiteSpace=wrap;html=1;" vertex="1" parent="1">
          <mxGeometry x="205" y="800" width="15" height="21" as="geometry" />
        </mxCell>
        <mxCell id="6HDTmJ1SJg69_PiVTCdH-23" value="&lt;b style=&quot;forced-color-adjust: none; color: rgb(0, 0, 0); font-family: Helvetica; font-size: 12px; font-style: normal; font-variant-ligatures: normal; font-variant-caps: normal; letter-spacing: normal; orphans: 2; text-align: center; text-indent: 0px; text-transform: none; widows: 2; word-spacing: 0px; -webkit-text-stroke-width: 0px; white-space: normal; background-color: rgb(251, 251, 251); text-decoration-thickness: initial; text-decoration-style: initial; text-decoration-color: initial;&quot;&gt;FK&lt;/b&gt;" style="text;whiteSpace=wrap;html=1;" vertex="1" parent="1">
          <mxGeometry x="205" y="819" width="15" height="21" as="geometry" />
        </mxCell>
        <mxCell id="6HDTmJ1SJg69_PiVTCdH-24" value="" style="edgeStyle=elbowEdgeStyle;fontSize=12;html=1;endArrow=ERoneToMany;rounded=0;exitX=0;exitY=0.5;exitDx=0;exitDy=0;" edge="1" parent="1" source="ZavuWOCTDrpFLeWUKXMv-37">
          <mxGeometry width="100" height="100" relative="1" as="geometry">
            <mxPoint x="1270" y="861.75" as="sourcePoint" />
            <mxPoint x="200" y="830" as="targetPoint" />
            <Array as="points">
              <mxPoint x="150" y="1061.75" />
            </Array>
          </mxGeometry>
        </mxCell>
        <mxCell id="6HDTmJ1SJg69_PiVTCdH-27" value="&lt;b style=&quot;forced-color-adjust: none; color: rgb(0, 0, 0); font-family: Helvetica; font-size: 12px; font-style: normal; font-variant-ligatures: normal; font-variant-caps: normal; letter-spacing: normal; orphans: 2; text-align: center; text-indent: 0px; text-transform: none; widows: 2; word-spacing: 0px; -webkit-text-stroke-width: 0px; white-space: normal; background-color: rgb(251, 251, 251); text-decoration-thickness: initial; text-decoration-style: initial; text-decoration-color: initial;&quot;&gt;FK&lt;/b&gt;" style="text;whiteSpace=wrap;html=1;" vertex="1" parent="1">
          <mxGeometry x="220" y="624.5" width="15" height="21" as="geometry" />
        </mxCell>
        <mxCell id="6HDTmJ1SJg69_PiVTCdH-28" value="" style="edgeStyle=elbowEdgeStyle;fontSize=12;html=1;endArrow=ERoneToMany;rounded=0;exitX=0;exitY=0.5;exitDx=0;exitDy=0;entryX=0;entryY=0.5;entryDx=0;entryDy=0;" edge="1" parent="1" source="6HDTmJ1SJg69_PiVTCdH-16">
          <mxGeometry width="100" height="100" relative="1" as="geometry">
            <mxPoint x="210" y="480" as="sourcePoint" />
            <mxPoint x="210" y="640" as="targetPoint" />
            <Array as="points">
              <mxPoint x="140" y="858.37" />
            </Array>
          </mxGeometry>
        </mxCell>
        <mxCell id="6HDTmJ1SJg69_PiVTCdH-35" value="&lt;div&gt;&lt;b style=&quot;forced-color-adjust: none; color: rgb(0, 0, 0); font-family: Helvetica; font-size: 12px; font-style: normal; font-variant-ligatures: normal; font-variant-caps: normal; letter-spacing: normal; orphans: 2; text-align: center; text-indent: 0px; text-transform: none; widows: 2; word-spacing: 0px; -webkit-text-stroke-width: 0px; white-space: normal; background-color: rgb(251, 251, 251); text-decoration-thickness: initial; text-decoration-style: initial; text-decoration-color: initial;&quot;&gt;&lt;br&gt;&lt;/b&gt;&lt;/div&gt;&lt;b style=&quot;forced-color-adjust: none; color: rgb(0, 0, 0); font-family: Helvetica; font-size: 12px; font-style: normal; font-variant-ligatures: normal; font-variant-caps: normal; letter-spacing: normal; orphans: 2; text-align: center; text-indent: 0px; text-transform: none; widows: 2; word-spacing: 0px; -webkit-text-stroke-width: 0px; white-space: normal; background-color: rgb(251, 251, 251); text-decoration-thickness: initial; text-decoration-style: initial; text-decoration-color: initial;&quot;&gt;&lt;div&gt;&lt;b style=&quot;forced-color-adjust: none; color: rgb(0, 0, 0); font-family: Helvetica; font-size: 12px; font-style: normal; font-variant-ligatures: normal; font-variant-caps: normal; letter-spacing: normal; orphans: 2; text-align: center; text-indent: 0px; text-transform: none; widows: 2; word-spacing: 0px; -webkit-text-stroke-width: 0px; white-space: normal; background-color: rgb(251, 251, 251); text-decoration-thickness: initial; text-decoration-style: initial; text-decoration-color: initial;&quot;&gt;&lt;br&gt;&lt;/b&gt;&lt;/div&gt;&lt;div&gt;&lt;b style=&quot;forced-color-adjust: none; color: rgb(0, 0, 0); font-family: Helvetica; font-size: 12px; font-style: normal; font-variant-ligatures: normal; font-variant-caps: normal; letter-spacing: normal; orphans: 2; text-align: center; text-indent: 0px; text-transform: none; widows: 2; word-spacing: 0px; -webkit-text-stroke-width: 0px; white-space: normal; background-color: rgb(251, 251, 251); text-decoration-thickness: initial; text-decoration-style: initial; text-decoration-color: initial;&quot;&gt;&lt;br&gt;&lt;/b&gt;&lt;/div&gt;&lt;div&gt;&lt;b style=&quot;forced-color-adjust: none; color: rgb(0, 0, 0); font-family: Helvetica; font-size: 12px; font-style: normal; font-variant-ligatures: normal; font-variant-caps: normal; letter-spacing: normal; orphans: 2; text-align: center; text-indent: 0px; text-transform: none; widows: 2; word-spacing: 0px; -webkit-text-stroke-width: 0px; white-space: normal; background-color: rgb(251, 251, 251); text-decoration-thickness: initial; text-decoration-style: initial; text-decoration-color: initial;&quot;&gt;&lt;br&gt;&lt;/b&gt;&lt;/div&gt;&lt;div&gt;&lt;b style=&quot;forced-color-adjust: none; color: rgb(0, 0, 0); font-family: Helvetica; font-size: 12px; font-style: normal; font-variant-ligatures: normal; font-variant-caps: normal; letter-spacing: normal; orphans: 2; text-align: center; text-indent: 0px; text-transform: none; widows: 2; word-spacing: 0px; -webkit-text-stroke-width: 0px; white-space: normal; background-color: rgb(251, 251, 251); text-decoration-thickness: initial; text-decoration-style: initial; text-decoration-color: initial;&quot;&gt;&lt;br&gt;&lt;/b&gt;&lt;/div&gt;&lt;/b&gt;&lt;div&gt;&lt;b style=&quot;forced-color-adjust: none; color: rgb(0, 0, 0); font-family: Helvetica; font-size: 12px; font-style: normal; font-variant-ligatures: normal; font-variant-caps: normal; letter-spacing: normal; orphans: 2; text-align: center; text-indent: 0px; text-transform: none; widows: 2; word-spacing: 0px; -webkit-text-stroke-width: 0px; white-space: normal; background-color: rgb(251, 251, 251); text-decoration-thickness: initial; text-decoration-style: initial; text-decoration-color: initial;&quot;&gt;&lt;b&gt;FK&lt;/b&gt;&lt;br&gt;&lt;/b&gt;&lt;/div&gt;&lt;div&gt;&lt;b style=&quot;forced-color-adjust: none; color: rgb(0, 0, 0); font-family: Helvetica; font-size: 12px; font-style: normal; font-variant-ligatures: normal; font-variant-caps: normal; letter-spacing: normal; orphans: 2; text-align: center; text-indent: 0px; text-transform: none; widows: 2; word-spacing: 0px; -webkit-text-stroke-width: 0px; white-space: normal; background-color: rgb(251, 251, 251); text-decoration-thickness: initial; text-decoration-style: initial; text-decoration-color: initial;&quot;&gt;&lt;b&gt;&lt;br&gt;&lt;/b&gt;&lt;/b&gt;&lt;/div&gt;&lt;div&gt;&lt;b style=&quot;background-color: initial; text-align: center;&quot;&gt;&lt;b&gt;FK&lt;/b&gt;&lt;/b&gt;&lt;br&gt;&lt;/div&gt;" style="text;whiteSpace=wrap;html=1;" vertex="1" parent="1">
          <mxGeometry x="550" y="590" width="30" height="130" as="geometry" />
        </mxCell>
        <mxCell id="6HDTmJ1SJg69_PiVTCdH-36" value="" style="edgeStyle=entityRelationEdgeStyle;fontSize=12;html=1;endArrow=ERoneToMany;rounded=0;exitX=1;exitY=0.5;exitDx=0;exitDy=0;entryX=0.033;entryY=0.663;entryDx=0;entryDy=0;entryPerimeter=0;" edge="1" parent="1" source="ZavuWOCTDrpFLeWUKXMv-25">
          <mxGeometry width="100" height="100" relative="1" as="geometry">
            <mxPoint x="859" y="614.5" as="sourcePoint" />
            <mxPoint x="940" y="695.5" as="targetPoint" />
          </mxGeometry>
        </mxCell>
        <mxCell id="6HDTmJ1SJg69_PiVTCdH-37" value="" style="edgeStyle=elbowEdgeStyle;fontSize=12;html=1;endArrow=ERoneToMany;rounded=0;elbow=vertical;exitX=0;exitY=0.5;exitDx=0;exitDy=0;entryX=0.007;entryY=0.587;entryDx=0;entryDy=0;entryPerimeter=0;" edge="1" parent="1" source="ZavuWOCTDrpFLeWUKXMv-45" target="nVaocaOWp-77uA6Ea02G-14">
          <mxGeometry width="100" height="100" relative="1" as="geometry">
            <mxPoint x="1230" y="310" as="sourcePoint" />
            <mxPoint x="880" y="700" as="targetPoint" />
            <Array as="points">
              <mxPoint x="870" y="280" />
              <mxPoint x="861.3" y="332.07" />
              <mxPoint x="880" y="690" />
            </Array>
          </mxGeometry>
        </mxCell>
        <mxCell id="6HDTmJ1SJg69_PiVTCdH-38" value="" style="edgeStyle=orthogonalEdgeStyle;fontSize=12;html=1;endArrow=ERoneToMany;rounded=0;exitX=1;exitY=0.5;exitDx=0;exitDy=0;" edge="1" parent="1" source="nVaocaOWp-77uA6Ea02G-51">
          <mxGeometry width="100" height="100" relative="1" as="geometry">
            <mxPoint x="1159" y="370.25" as="sourcePoint" />
            <mxPoint x="1310" y="370" as="targetPoint" />
            <Array as="points">
              <mxPoint x="1290" y="405" />
              <mxPoint x="1290" y="370" />
            </Array>
          </mxGeometry>
        </mxCell>
        <mxCell id="6HDTmJ1SJg69_PiVTCdH-39" value="" style="edgeStyle=entityRelationEdgeStyle;fontSize=12;html=1;endArrow=ERoneToMany;rounded=0;entryX=0;entryY=0.75;entryDx=0;entryDy=0;" edge="1" parent="1" source="nVaocaOWp-77uA6Ea02G-11" target="6HDTmJ1SJg69_PiVTCdH-40">
          <mxGeometry width="100" height="100" relative="1" as="geometry">
            <mxPoint x="1176" y="670" as="sourcePoint" />
            <mxPoint x="1306" y="684" as="targetPoint" />
          </mxGeometry>
        </mxCell>
        <mxCell id="6HDTmJ1SJg69_PiVTCdH-40" value="&lt;div&gt;&lt;b style=&quot;color: rgb(0, 0, 0); font-family: Helvetica; font-size: 12px; font-style: normal; font-variant-ligatures: normal; font-variant-caps: normal; letter-spacing: normal; orphans: 2; text-indent: 0px; text-transform: none; widows: 2; word-spacing: 0px; -webkit-text-stroke-width: 0px; white-space: normal; background-color: rgb(251, 251, 251); text-decoration-thickness: initial; text-decoration-style: initial; text-decoration-color: initial;&quot;&gt;&lt;br&gt;&lt;/b&gt;&lt;/div&gt;&lt;b style=&quot;color: rgb(0, 0, 0); font-family: Helvetica; font-size: 12px; font-style: normal; font-variant-ligatures: normal; font-variant-caps: normal; letter-spacing: normal; orphans: 2; text-indent: 0px; text-transform: none; widows: 2; word-spacing: 0px; -webkit-text-stroke-width: 0px; white-space: normal; background-color: rgb(251, 251, 251); text-decoration-thickness: initial; text-decoration-style: initial; text-decoration-color: initial;&quot;&gt;&lt;div&gt;&lt;b style=&quot;color: rgb(0, 0, 0); font-family: Helvetica; font-size: 12px; font-style: normal; font-variant-ligatures: normal; font-variant-caps: normal; letter-spacing: normal; orphans: 2; text-indent: 0px; text-transform: none; widows: 2; word-spacing: 0px; -webkit-text-stroke-width: 0px; white-space: normal; background-color: rgb(251, 251, 251); text-decoration-thickness: initial; text-decoration-style: initial; text-decoration-color: initial;&quot;&gt;&lt;br&gt;&lt;/b&gt;&lt;/div&gt;&lt;div&gt;&lt;b style=&quot;color: rgb(0, 0, 0); font-family: Helvetica; font-size: 12px; font-style: normal; font-variant-ligatures: normal; font-variant-caps: normal; letter-spacing: normal; orphans: 2; text-indent: 0px; text-transform: none; widows: 2; word-spacing: 0px; -webkit-text-stroke-width: 0px; white-space: normal; background-color: rgb(251, 251, 251); text-decoration-thickness: initial; text-decoration-style: initial; text-decoration-color: initial;&quot;&gt;&lt;br&gt;&lt;/b&gt;&lt;/div&gt;&lt;div&gt;&lt;b style=&quot;color: rgb(0, 0, 0); font-family: Helvetica; font-size: 12px; font-style: normal; font-variant-ligatures: normal; font-variant-caps: normal; letter-spacing: normal; orphans: 2; text-indent: 0px; text-transform: none; widows: 2; word-spacing: 0px; -webkit-text-stroke-width: 0px; white-space: normal; background-color: rgb(251, 251, 251); text-decoration-thickness: initial; text-decoration-style: initial; text-decoration-color: initial;&quot;&gt;&lt;br&gt;&lt;/b&gt;&lt;/div&gt;&lt;div&gt;&lt;b style=&quot;color: rgb(0, 0, 0); font-family: Helvetica; font-size: 12px; font-style: normal; font-variant-ligatures: normal; font-variant-caps: normal; letter-spacing: normal; orphans: 2; text-indent: 0px; text-transform: none; widows: 2; word-spacing: 0px; -webkit-text-stroke-width: 0px; white-space: normal; background-color: rgb(251, 251, 251); text-decoration-thickness: initial; text-decoration-style: initial; text-decoration-color: initial;&quot;&gt;&lt;br&gt;&lt;/b&gt;&lt;/div&gt;&lt;div&gt;&lt;b style=&quot;color: rgb(0, 0, 0); font-family: Helvetica; font-size: 12px; font-style: normal; font-variant-ligatures: normal; font-variant-caps: normal; letter-spacing: normal; orphans: 2; text-indent: 0px; text-transform: none; widows: 2; word-spacing: 0px; -webkit-text-stroke-width: 0px; white-space: normal; background-color: rgb(251, 251, 251); text-decoration-thickness: initial; text-decoration-style: initial; text-decoration-color: initial;&quot;&gt;&lt;br&gt;&lt;/b&gt;&lt;/div&gt;&lt;div&gt;&lt;b&gt;FK&lt;/b&gt;&lt;br&gt;&lt;/div&gt;&lt;/b&gt;&lt;div&gt;&lt;b style=&quot;color: rgb(0, 0, 0); font-family: Helvetica; font-size: 12px; font-style: normal; font-variant-ligatures: normal; font-variant-caps: normal; letter-spacing: normal; orphans: 2; text-indent: 0px; text-transform: none; widows: 2; word-spacing: 0px; -webkit-text-stroke-width: 0px; white-space: normal; background-color: rgb(251, 251, 251); text-decoration-thickness: initial; text-decoration-style: initial; text-decoration-color: initial;&quot;&gt;&lt;b&gt;FK&lt;/b&gt;&lt;br&gt;&lt;/b&gt;&lt;/div&gt;" style="text;whiteSpace=wrap;html=1;align=center;" vertex="1" parent="1">
          <mxGeometry x="1310" y="575" width="30" height="120" as="geometry" />
        </mxCell>
        <mxCell id="6HDTmJ1SJg69_PiVTCdH-44" value="&lt;span style=&quot;text-align: left; text-wrap: wrap;&quot;&gt;Calendar&lt;/span&gt;" style="shape=table;startSize=20;container=1;collapsible=1;childLayout=tableLayout;fixedRows=1;rowLines=0;fontStyle=1;align=center;resizeLast=1;html=1;" vertex="1" parent="1">
          <mxGeometry x="550" y="920.5" width="260" height="79" as="geometry" />
        </mxCell>
        <mxCell id="6HDTmJ1SJg69_PiVTCdH-45" value="" style="shape=tableRow;horizontal=0;startSize=0;swimlaneHead=0;swimlaneBody=0;fillColor=none;collapsible=0;dropTarget=0;points=[[0,0.5],[1,0.5]];portConstraint=eastwest;top=0;left=0;right=0;bottom=1;" vertex="1" parent="6HDTmJ1SJg69_PiVTCdH-44">
          <mxGeometry y="20" width="260" height="30" as="geometry" />
        </mxCell>
        <mxCell id="6HDTmJ1SJg69_PiVTCdH-46" value="PK" style="shape=partialRectangle;connectable=0;fillColor=none;top=0;left=0;bottom=0;right=0;fontStyle=1;overflow=hidden;whiteSpace=wrap;html=1;" vertex="1" parent="6HDTmJ1SJg69_PiVTCdH-45">
          <mxGeometry width="30" height="30" as="geometry">
            <mxRectangle width="30" height="30" as="alternateBounds" />
          </mxGeometry>
        </mxCell>
        <mxCell id="6HDTmJ1SJg69_PiVTCdH-47" value="Dates ID Int&amp;nbsp;NOT NULL" style="shape=partialRectangle;connectable=0;fillColor=none;top=0;left=0;bottom=0;right=0;align=left;spacingLeft=6;fontStyle=5;overflow=hidden;whiteSpace=wrap;html=1;" vertex="1" parent="6HDTmJ1SJg69_PiVTCdH-45">
          <mxGeometry x="30" width="230" height="30" as="geometry">
            <mxRectangle width="230" height="30" as="alternateBounds" />
          </mxGeometry>
        </mxCell>
        <mxCell id="6HDTmJ1SJg69_PiVTCdH-48" value="" style="shape=tableRow;horizontal=0;startSize=0;swimlaneHead=0;swimlaneBody=0;fillColor=none;collapsible=0;dropTarget=0;points=[[0,0.5],[1,0.5]];portConstraint=eastwest;top=0;left=0;right=0;bottom=0;" vertex="1" parent="6HDTmJ1SJg69_PiVTCdH-44">
          <mxGeometry y="50" width="260" height="29" as="geometry" />
        </mxCell>
        <mxCell id="6HDTmJ1SJg69_PiVTCdH-49" value="" style="shape=partialRectangle;connectable=0;fillColor=none;top=0;left=0;bottom=0;right=0;editable=1;overflow=hidden;whiteSpace=wrap;html=1;" vertex="1" parent="6HDTmJ1SJg69_PiVTCdH-48">
          <mxGeometry width="30" height="29" as="geometry">
            <mxRectangle width="30" height="29" as="alternateBounds" />
          </mxGeometry>
        </mxCell>
        <mxCell id="6HDTmJ1SJg69_PiVTCdH-50" value="&lt;span style=&quot;font-weight: 700;&quot;&gt;Date: Date&lt;/span&gt;" style="shape=partialRectangle;connectable=0;fillColor=none;top=0;left=0;bottom=0;right=0;align=left;spacingLeft=6;overflow=hidden;whiteSpace=wrap;html=1;" vertex="1" parent="6HDTmJ1SJg69_PiVTCdH-48">
          <mxGeometry x="30" width="230" height="29" as="geometry">
            <mxRectangle width="230" height="29" as="alternateBounds" />
          </mxGeometry>
        </mxCell>
        <mxCell id="6HDTmJ1SJg69_PiVTCdH-51" value="" style="edgeStyle=entityRelationEdgeStyle;fontSize=12;html=1;endArrow=ERoneToMany;rounded=0;exitX=1;exitY=0.5;exitDx=0;exitDy=0;entryX=0;entryY=0.5;entryDx=0;entryDy=0;" edge="1" parent="1" source="6HDTmJ1SJg69_PiVTCdH-45" target="dFKfAWJj2y6_g-Lvkzqu-9">
          <mxGeometry width="100" height="100" relative="1" as="geometry">
            <mxPoint x="660" y="864.7599999999998" as="sourcePoint" />
            <mxPoint x="730.52" y="975.24" as="targetPoint" />
          </mxGeometry>
        </mxCell>
      </root>
    </mxGraphModel>
  </diagram>
</mxfile>
